<?xml version="1.0" encoding="UTF-8" standalone="no"?>
<svg
   width="139.63347mm"
   height="71.54953mm"
   viewBox="0 0 139.63347 71.54953"
   version="1.1"
   id="svg851"
   inkscape:version="1.1 (ce6663b3b7, 2021-05-25)"
   sodipodi:docname="block-8-bits-ascii-A.svg"
   xmlns:inkscape="http://www.inkscape.org/namespaces/inkscape"
   xmlns:sodipodi="http://sodipodi.sourceforge.net/DTD/sodipodi-0.dtd"
   xmlns="http://www.w3.org/2000/svg"
   xmlns:svg="http://www.w3.org/2000/svg"
   xmlns:rdf="http://www.w3.org/1999/02/22-rdf-syntax-ns#"
   xmlns:cc="http://creativecommons.org/ns#"
   xmlns:dc="http://purl.org/dc/elements/1.1/">
  <defs
     id="defs845" />
  <sodipodi:namedview
     id="base"
     pagecolor="#ffffff"
     bordercolor="#666666"
     borderopacity="1.0"
     inkscape:pageopacity="0.0"
     inkscape:pageshadow="2"
     inkscape:zoom="0.7"
     inkscape:cx="290.71429"
     inkscape:cy="115.71429"
     inkscape:document-units="mm"
     inkscape:current-layer="layer1"
     inkscape:document-rotation="0"
     showgrid="false"
     inkscape:window-width="1920"
     inkscape:window-height="1043"
     inkscape:window-x="1920"
     inkscape:window-y="0"
     inkscape:window-maximized="1"
     showguides="true"
     inkscape:guide-bbox="true"
     fit-margin-top="0"
     fit-margin-left="0"
     fit-margin-right="0"
     fit-margin-bottom="0"
     inkscape:snap-global="false"
     inkscape:pagecheckerboard="0" />
  <metadata
     id="metadata848">
    <rdf:RDF>
      <cc:Work
         rdf:about="">
        <dc:format>image/svg+xml</dc:format>
        <dc:type
           rdf:resource="http://purl.org/dc/dcmitype/StillImage" />
      </cc:Work>
    </rdf:RDF>
  </metadata>
  <g
     inkscape:label="Layer 1"
     inkscape:groupmode="layer"
     id="layer1"
     transform="translate(-47.147726,-70.692664)">
    <rect
       ry="5.4701953"
       y="71.089539"
       x="47.544601"
       height="70.755783"
       width="106.55138"
       id="rect861"
       style="display:inline;fill:#e3e3e3;fill-opacity:1;stroke:#777777;stroke-width:0.79375;stroke-linejoin:round;stroke-miterlimit:4;stroke-dasharray:none;stroke-opacity:1" />
    <path
       inkscape:connector-curvature="0"
       id="path865-2-1-2"
       d="M 162.38039,106.18468 H 153.8002"
       style="display:inline;fill:none;stroke:#777777;stroke-width:4.7625;stroke-linecap:butt;stroke-linejoin:miter;stroke-miterlimit:4;stroke-dasharray:none;stroke-opacity:1" />
    <g
       aria-label="[7:0]"
       id="text844"
       style="font-size:13.214px;line-height:1.25;display:inline;fill:#767675;stroke-width:0.297393">
      <path
         d="m 157.47553,85.848671 h 2.73571 v 0.922658 h -1.54852 v 9.936308 h 1.54852 v 0.922657 h -2.73571 z"
         id="path6393" />
      <path
         d="m 162.57918,86.255157 h 6.19406 v 0.554884 l -3.49706,9.078173 h -1.36141 l 3.2906,-8.536192 h -4.62619 z"
         id="path6395" />
      <path
         d="m 171.45088,94.249368 h 1.36141 v 1.638846 h -1.36141 z m 0,-5.193979 h 1.36141 v 1.638846 h -1.36141 z"
         id="path6397" />
      <path
         d="m 178.5547,87.113292 q -1.00654,0 -1.51626,0.993631 -0.50326,0.987179 -0.50326,2.974441 0,1.980809 0.50326,2.97444 0.50972,0.987179 1.51626,0.987179 1.01298,0 1.51625,-0.987179 0.50972,-0.993631 0.50972,-2.97444 0,-1.987262 -0.50972,-2.974441 -0.50327,-0.993631 -1.51625,-0.993631 z m 0,-1.032343 q 1.61949,0 2.47117,1.283977 0.85814,1.277526 0.85814,3.716438 0,2.43246 -0.85814,3.716437 -0.85168,1.277525 -2.47117,1.277525 -1.61949,0 -2.47763,-1.277525 -0.85168,-1.283977 -0.85168,-3.716437 0,-2.438912 0.85168,-3.716438 0.85814,-1.283977 2.47763,-1.283977 z"
         id="path6399" />
      <path
         d="m 186.78119,85.848671 v 11.781623 h -2.73571 v -0.922657 h 1.54206 v -9.936308 h -1.54206 v -0.922658 z"
         id="path6401" />
    </g>
    <g
       aria-label="'A'"
       id="text2666"
       style="font-size:67.6552px;line-height:1.25;letter-spacing:0px;word-spacing:0px;fill:#008000;stroke-width:1.69138">
      <path
         d="M 70.626196,83.316304 V 101.6506 h -5.61591 V 83.316304 Z"
         id="path6368" />
      <path
         d="M 100.22534,89.890222 91.173819,114.43505 H 109.3099 Z m -3.765959,-6.573918 h 7.564959 l 18.79678,49.320906 h -6.9373 l -4.49273,-12.65232 H 89.158698 l -4.492728,12.65232 h -7.036404 z"
         id="path6370" />
      <path
         d="M 135.50648,83.316304 V 101.6506 h -5.61591 V 83.316304 Z"
         id="path6372" />
    </g>
  </g>
</svg>
