<?xml version="1.0" encoding="UTF-8" standalone="no"?>
<svg
   xmlns:dc="http://purl.org/dc/elements/1.1/"
   xmlns:cc="http://creativecommons.org/ns#"
   xmlns:rdf="http://www.w3.org/1999/02/22-rdf-syntax-ns#"
   xmlns:svg="http://www.w3.org/2000/svg"
   xmlns="http://www.w3.org/2000/svg"
   xmlns:sodipodi="http://sodipodi.sourceforge.net/DTD/sodipodi-0.dtd"
   xmlns:inkscape="http://www.inkscape.org/namespaces/inkscape"
   width="117.03127mm"
   height="72.090652mm"
   viewBox="0 0 117.03127 72.090652"
   version="1.1"
   id="svg1548"
   inkscape:version="1.0.1 (0767f8302a, 2020-10-17)"
   sodipodi:docname="block-bit-0-legs.svg">
  <defs
     id="defs1542" />
  <sodipodi:namedview
     id="base"
     pagecolor="#ffffff"
     bordercolor="#666666"
     borderopacity="1.0"
     inkscape:pageopacity="0.0"
     inkscape:pageshadow="2"
     inkscape:zoom="0.7"
     inkscape:cx="539.07965"
     inkscape:cy="159.14161"
     inkscape:document-units="mm"
     inkscape:current-layer="layer1"
     showgrid="false"
     inkscape:window-width="1858"
     inkscape:window-height="1016"
     inkscape:window-x="62"
     inkscape:window-y="27"
     inkscape:window-maximized="1"
     fit-margin-top="0"
     fit-margin-left="0"
     fit-margin-right="0"
     fit-margin-bottom="0"
     inkscape:document-rotation="0"
     inkscape:snap-global="false" />
  <metadata
     id="metadata1545">
    <rdf:RDF>
      <cc:Work
         rdf:about="">
        <dc:format>image/svg+xml</dc:format>
        <dc:type
           rdf:resource="http://purl.org/dc/dcmitype/StillImage" />
        <dc:title></dc:title>
      </cc:Work>
    </rdf:RDF>
  </metadata>
  <g
     inkscape:label="Layer 1"
     inkscape:groupmode="layer"
     id="layer1"
     style="display:inline;opacity:1"
     transform="translate(68.484505,-43.644592)">
    <rect
       ry="5.4701953"
       y="44.312027"
       x="-67.81707"
       height="70.755783"
       width="106.55138"
       id="rect861"
       style="fill:#c0dfeb;fill-opacity:1;stroke:#777777;stroke-width:1.33487;stroke-linejoin:round;stroke-miterlimit:4;stroke-dasharray:none;stroke-opacity:1" />
    <path
       inkscape:connector-curvature="0"
       id="path865-3-6"
       d="m 38.5573,78.351375 h 9.98947"
       style="display:inline;fill:none;stroke:#777777;stroke-width:2.08673;stroke-linecap:butt;stroke-linejoin:miter;stroke-miterlimit:4;stroke-dasharray:none;stroke-opacity:1" />
    <g
       id="layer1-3"
       inkscape:label="Layer 1"
       style="display:inline"
       transform="matrix(0.30103422,0,0,0.30103422,-30.72076,53.419391)">
      <path
         style="fill:none;stroke:#008000;stroke-width:2;stroke-linecap:round;stroke-linejoin:round"
         inkscape:connector-curvature="0"
         id="path6-6"
         d="m 69.663915,107.28527 13.49404,29.37368 -12.43879,31.77467 13.78754,4.28259 m -42.76081,-62.91564 c 0,0 -3.59775,26.95639 -8.52446,29.13197 -4.92342,2.17885 -32.22147896,22.40266 -32.22147896,22.40266 l 8.72891556,10.6362"
         inkscape:export-filename="/home/obijuan/develop/FPGAwars/Icestudio-block-icons/Bits/png/0-legs.png"
         inkscape:export-xdpi="90"
         inkscape:export-ydpi="90" />
      <g
         aria-label="o"
         transform="matrix(0.9118541,0,0,1.0966667,-128.06239,35.709923)"
         id="text4142-6"
         style="font-style:normal;font-weight:normal;font-size:12px;line-height:0%;font-family:sans-serif;letter-spacing:0px;word-spacing:0px;display:inline;fill:#008000;fill-opacity:1;stroke:none;stroke-width:1px;stroke-linecap:butt;stroke-linejoin:miter;stroke-opacity:1">
        <path
           d="m 212.31328,-10.227385 q -10.41157,0 -17.41094,7.5243289 -6.91189,7.4368361 -9.71164,21.5230791 -2.79975,14.086242 1.1374,21.610571 3.93715,7.436836 14.34872,7.436836 10.23659,0 17.14847,-7.436836 6.99938,-7.524329 9.79913,-21.610571 2.79975,-14.086243 -1.1374,-21.5230791 -3.93715,-7.5243289 -14.17374,-7.5243289 z m 4.4621,-22.398 q 25.28525,0 36.74672,13.648781 11.54897,13.6487821 6.7369,37.796627 -4.81207,24.147844 -21.78555,37.796626 -16.97349,13.648782 -42.25873,13.648782 -25.37274,0 -36.92171,-13.648782 -11.54896,-13.648782 -6.73689,-37.796626 4.81207,-24.1478449 21.78555,-37.796627 17.06098,-13.648781 42.43371,-13.648781 z"
           style="font-style:italic;font-variant:normal;font-weight:bold;font-stretch:normal;font-size:179.184px;line-height:1.25;font-family:sans-serif;-inkscape-font-specification:'sans-serif Bold Italic';fill:#008000;stroke-width:1px"
           id="path77" />
      </g>
    </g>
  </g>
</svg>
