<?xml version="1.0" encoding="UTF-8" standalone="no"?>
<svg
   width="104.98801mm"
   height="47.288868mm"
   viewBox="0 0 372.00479 167.55897"
   id="svg2"
   version="1.1"
   inkscape:version="1.1 (ce6663b3b7, 2021-05-25)"
   sodipodi:docname="0xF.svg"
   xmlns:inkscape="http://www.inkscape.org/namespaces/inkscape"
   xmlns:sodipodi="http://sodipodi.sourceforge.net/DTD/sodipodi-0.dtd"
   xmlns="http://www.w3.org/2000/svg"
   xmlns:svg="http://www.w3.org/2000/svg"
   xmlns:rdf="http://www.w3.org/1999/02/22-rdf-syntax-ns#"
   xmlns:cc="http://creativecommons.org/ns#"
   xmlns:dc="http://purl.org/dc/elements/1.1/">
  <defs
     id="defs4" />
  <sodipodi:namedview
     id="base"
     pagecolor="#ffffff"
     bordercolor="#666666"
     borderopacity="1.0"
     inkscape:pageopacity="0.0"
     inkscape:pageshadow="2"
     inkscape:zoom="1.1978261"
     inkscape:cx="24.627949"
     inkscape:cy="226.66061"
     inkscape:document-units="px"
     inkscape:current-layer="text4150"
     showgrid="false"
     fit-margin-top="0"
     fit-margin-left="0"
     fit-margin-right="0"
     fit-margin-bottom="0"
     inkscape:window-width="1860"
     inkscape:window-height="1016"
     inkscape:window-x="60"
     inkscape:window-y="27"
     inkscape:window-maximized="1"
     inkscape:document-rotation="0"
     showguides="true"
     inkscape:guide-bbox="true"
     inkscape:pagecheckerboard="0" />
  <metadata
     id="metadata7">
    <rdf:RDF>
      <cc:Work
         rdf:about="">
        <dc:format>image/svg+xml</dc:format>
        <dc:type
           rdf:resource="http://purl.org/dc/dcmitype/StillImage" />
      </cc:Work>
    </rdf:RDF>
  </metadata>
  <g
     inkscape:label="Layer 1"
     inkscape:groupmode="layer"
     id="layer1"
     transform="translate(-478.51364,-468.88758)">
    <g
       aria-label="3"
       id="text4150"
       style="font-style:normal;font-variant:normal;font-weight:normal;font-stretch:normal;line-height:0%;font-family:'Ubuntu Mono';-inkscape-font-specification:'Ubuntu Mono';letter-spacing:0px;word-spacing:0px;fill:#008000;fill-opacity:1;stroke:none;stroke-width:1px;stroke-linecap:butt;stroke-linejoin:miter;stroke-opacity:1">
      <g
         aria-label="0xF"
         id="text1575"
         style="font-size:221.537px;line-height:1.25;font-family:sans-serif;stroke-width:5.53842px">
        <path
           d="m 534.33058,486.19515 q -16.87489,0 -25.42051,16.65855 -8.43744,16.55037 -8.43744,49.86746 0,33.20891 8.43744,49.86746 8.54562,16.55037 25.42051,16.55037 16.98306,0 25.4205,-16.55037 8.54562,-16.65855 8.54562,-49.86746 0,-33.31709 -8.54562,-49.86746 -8.43744,-16.65855 -25.4205,-16.65855 z m 0,-17.30757 q 27.15126,0 41.43001,21.5263 14.38693,21.41812 14.38693,62.30728 0,40.78098 -14.38693,62.30728 -14.27875,21.41813 -41.43001,21.41813 -27.15126,0 -41.53819,-21.41813 -14.27875,-21.5263 -14.27875,-62.30728 0,-40.88916 14.27875,-62.30728 14.38693,-21.5263 41.53819,-21.5263 z"
           id="path2019" />
        <path
           d="m 726.4447,512.15652 -43.80981,58.95394 46.08143,62.19911 h -23.4734 l -35.26419,-47.59584 -35.26419,47.59584 h -23.47341 l 47.05498,-63.38901 -43.0526,-57.76404 h 23.4734 l 32.1272,43.16078 32.12719,-43.16078 z"
           id="path2021" />
        <path
           d="m 757.70651,471.80823 h 92.81189 v 18.3893 h -70.96107 v 47.59584 h 64.03804 v 18.3893 h -64.03804 v 77.1269 h -21.85082 z"
           id="path2023" />
      </g>
    </g>
  </g>
</svg>
