<?xml version="1.0" encoding="UTF-8" standalone="no"?>
<svg
   xmlns:dc="http://purl.org/dc/elements/1.1/"
   xmlns:cc="http://creativecommons.org/ns#"
   xmlns:rdf="http://www.w3.org/1999/02/22-rdf-syntax-ns#"
   xmlns:svg="http://www.w3.org/2000/svg"
   xmlns="http://www.w3.org/2000/svg"
   xmlns:sodipodi="http://sodipodi.sourceforge.net/DTD/sodipodi-0.dtd"
   xmlns:inkscape="http://www.inkscape.org/namespaces/inkscape"
   width="36.253647mm"
   height="61.148453mm"
   viewBox="0 0 128.45781 216.66774"
   id="svg2"
   version="1.1"
   inkscape:version="1.0.2 (16c81841c1, 2021-03-16)"
   sodipodi:docname="3.svg">
  <defs
     id="defs4" />
  <sodipodi:namedview
     id="base"
     pagecolor="#ffffff"
     bordercolor="#666666"
     borderopacity="1.0"
     inkscape:pageopacity="0.0"
     inkscape:pageshadow="2"
     inkscape:zoom="3.3879639"
     inkscape:cx="68.510829"
     inkscape:cy="115.55613"
     inkscape:document-units="px"
     inkscape:current-layer="layer1"
     showgrid="false"
     fit-margin-top="0"
     fit-margin-left="0"
     fit-margin-right="0"
     fit-margin-bottom="0"
     inkscape:window-width="1860"
     inkscape:window-height="1016"
     inkscape:window-x="60"
     inkscape:window-y="27"
     inkscape:window-maximized="1"
     inkscape:document-rotation="0" />
  <metadata
     id="metadata7">
    <rdf:RDF>
      <cc:Work
         rdf:about="">
        <dc:format>image/svg+xml</dc:format>
        <dc:type
           rdf:resource="http://purl.org/dc/dcmitype/StillImage" />
        <dc:title></dc:title>
      </cc:Work>
    </rdf:RDF>
  </metadata>
  <g
     inkscape:label="Layer 1"
     inkscape:groupmode="layer"
     id="layer1"
     transform="translate(-312.90396,-436.03656)">
    <g
       aria-label="3"
       id="text4150"
       style="font-style:normal;font-variant:normal;font-weight:normal;font-stretch:normal;line-height:0%;font-family:'Ubuntu Mono';-inkscape-font-specification:'Ubuntu Mono';letter-spacing:0px;word-spacing:0px;fill:#008000;fill-opacity:1;stroke:none;stroke-width:1px;stroke-linecap:butt;stroke-linejoin:miter;stroke-opacity:1">
      <path
         d="m 364.22,628.22018 q 26.49652,0 37.56469,-10.39737 11.40356,-10.73277 11.40356,-28.50892 0,-11.40356 -4.69558,-19.11774 -4.69559,-7.71417 -12.40976,-12.40976 -7.71418,-4.69559 -17.77615,-6.70798 -10.06197,-2.01239 -21.13014,-2.01239 h -7.04337 v -22.47174 h 9.72657 q 7.37877,0 15.09295,-1.34159 8.04958,-1.677 14.42216,-5.36639 6.70798,-4.02478 10.73276,-10.73276 4.02479,-6.70798 4.02479,-17.10535 0,-17.10535 -10.73277,-24.14873 -10.39736,-7.37878 -24.48412,-7.37878 -14.42216,0 -24.48413,4.36019 -10.06197,4.02479 -16.76995,8.38498 l -10.73276,-21.13014 q 7.04337,-5.03099 21.13013,-10.39737 14.42216,-5.70178 31.86291,-5.70178 16.43455,0 28.17351,4.02479 11.73896,4.02478 19.11774,11.40356 7.71418,7.37878 11.40357,17.44075 3.68939,9.72657 3.68939,21.46553 0,16.43455 -8.72038,27.83812 -8.38497,11.40356 -21.80093,17.44075 16.09915,4.69558 27.83812,18.44694 11.73896,13.41596 11.73896,35.88769 0,13.41596 -4.69559,25.15493 -4.36018,11.40356 -13.75135,19.78854 -9.05578,8.38497 -23.81333,13.08056 -14.42216,4.69558 -34.5461,4.69558 -7.71418,0 -16.09915,-1.34159 -8.04958,-1.0062 -15.09295,-3.01859 -7.04338,-1.677 -12.74517,-3.35399 -5.36638,-2.0124 -7.71417,-3.01859 l 5.36638,-23.81333 q 5.36639,2.68319 17.10535,6.37258 11.73896,3.68939 28.84431,3.68939 z"
         style="font-size:335.399px;line-height:1.25"
         id="path834" />
    </g>
  </g>
</svg>
