<?xml version="1.0" encoding="UTF-8" standalone="no"?>
<svg
   width="100.52658mm"
   height="65.650787mm"
   viewBox="0 0 356.19654 232.62089"
   id="svg2"
   version="1.1"
   inkscape:version="1.1-beta1 (00eb3508d5, 2021-04-15)"
   sodipodi:docname="Constant-k-1.svg"
   xmlns:inkscape="http://www.inkscape.org/namespaces/inkscape"
   xmlns:sodipodi="http://sodipodi.sourceforge.net/DTD/sodipodi-0.dtd"
   xmlns="http://www.w3.org/2000/svg"
   xmlns:svg="http://www.w3.org/2000/svg"
   xmlns:rdf="http://www.w3.org/1999/02/22-rdf-syntax-ns#"
   xmlns:cc="http://creativecommons.org/ns#"
   xmlns:dc="http://purl.org/dc/elements/1.1/">
  <defs
     id="defs4" />
  <sodipodi:namedview
     id="base"
     pagecolor="#ffffff"
     bordercolor="#666666"
     borderopacity="1.0"
     inkscape:pageopacity="0.0"
     inkscape:pageshadow="2"
     inkscape:zoom="1.4142136"
     inkscape:cx="160.15969"
     inkscape:cy="124.80435"
     inkscape:document-units="px"
     inkscape:current-layer="layer1"
     showgrid="false"
     fit-margin-top="0"
     fit-margin-left="0"
     fit-margin-right="0"
     fit-margin-bottom="0"
     inkscape:window-width="1860"
     inkscape:window-height="1016"
     inkscape:window-x="60"
     inkscape:window-y="27"
     inkscape:window-maximized="1"
     inkscape:document-rotation="0"
     objecttolerance="10.0"
     gridtolerance="10.0"
     guidetolerance="10.0"
     inkscape:pagecheckerboard="0" />
  <metadata
     id="metadata7">
    <rdf:RDF>
      <cc:Work
         rdf:about="">
        <dc:format>image/svg+xml</dc:format>
        <dc:type
           rdf:resource="http://purl.org/dc/dcmitype/StillImage" />
      </cc:Work>
    </rdf:RDF>
  </metadata>
  <g
     inkscape:label="Layer 1"
     inkscape:groupmode="layer"
     id="layer1"
     transform="translate(-316.92875,-415.91262)">
    <g
       aria-label="k"
       id="text4150"
       style="font-style:normal;font-variant:normal;font-weight:normal;font-stretch:normal;line-height:0%;font-family:'Ubuntu Mono';-inkscape-font-specification:'Ubuntu Mono';letter-spacing:0px;word-spacing:0px;fill:#008000;fill-opacity:1;stroke:none;stroke-width:1px;stroke-linecap:butt;stroke-linejoin:miter;stroke-opacity:1">
      <path
         d="m 372.94038,562.81737 q 9.05577,6.70798 20.45933,17.10535 11.40357,10.06197 22.47174,21.80094 11.40356,11.73896 21.46553,24.14872 10.06197,12.07437 16.09915,22.47174 h -32.8691 q -6.37258,-10.39737 -15.76375,-21.13014 -9.39117,-11.06817 -20.12394,-21.13014 -10.39737,-10.06197 -21.13014,-18.44694 -10.39736,-8.38498 -18.78234,-14.08676 v 74.79398 H 316.92875 V 420.6082 l 27.83811,-4.69558 v 141.87377 q 18.44695,-16.09915 36.89389,-31.8629 18.44694,-16.09916 33.2045,-33.2045 h 32.5337 q -14.42216,17.10534 -34.88149,35.21689 -20.12394,18.11155 -39.57708,34.88149 z"
         style="font-size:335.399px;line-height:1.25"
         id="path832" />
    </g>
    <g
       aria-label="-1"
       id="text4021"
       style="font-size:240.378px;line-height:1.25;fill:#008000;stroke-width:6.00944"
       transform="matrix(1.112271,0,0,1.112271,-62.794279,-62.551642)">
      <path
         d="m 455.88369,563.83902 h 63.26355 v 19.24902 h -63.26355 z"
         id="path4583" />
      <path
         d="m 560.69695,619.35601 h 38.73279 V 485.66922 l -42.13658,8.45079 v -21.59646 l 41.90183,-8.45079 h 23.70916 v 155.28325 h 38.73278 v 19.95326 H 560.69695 Z"
         id="path4585" />
    </g>
  </g>
</svg>
