<?xml version="1.0" encoding="UTF-8" standalone="no"?>
<svg
   width="86.576294mm"
   height="59.776127mm"
   viewBox="0 0 306.76641 211.80517"
   id="svg2"
   version="1.1"
   inkscape:version="1.3.2 (1:1.3.2+202311252150+091e20ef0f)"
   sodipodi:docname="nl.svg"
   xmlns:inkscape="http://www.inkscape.org/namespaces/inkscape"
   xmlns:sodipodi="http://sodipodi.sourceforge.net/DTD/sodipodi-0.dtd"
   xmlns="http://www.w3.org/2000/svg"
   xmlns:svg="http://www.w3.org/2000/svg"
   xmlns:rdf="http://www.w3.org/1999/02/22-rdf-syntax-ns#"
   xmlns:cc="http://creativecommons.org/ns#"
   xmlns:dc="http://purl.org/dc/elements/1.1/">
  <defs
     id="defs4" />
  <sodipodi:namedview
     id="base"
     pagecolor="#ffffff"
     bordercolor="#666666"
     borderopacity="1.0"
     inkscape:pageopacity="0.0"
     inkscape:pageshadow="2"
     inkscape:zoom="0.846991"
     inkscape:cx="87.368107"
     inkscape:cy="121.01663"
     inkscape:document-units="px"
     inkscape:current-layer="text852"
     showgrid="false"
     fit-margin-top="0"
     fit-margin-left="0"
     fit-margin-right="0"
     fit-margin-bottom="0"
     inkscape:window-width="1864"
     inkscape:window-height="1016"
     inkscape:window-x="56"
     inkscape:window-y="27"
     inkscape:window-maximized="1"
     inkscape:document-rotation="0"
     showguides="true"
     inkscape:guide-bbox="true"
     objecttolerance="10.0"
     gridtolerance="10.0"
     guidetolerance="10.0"
     inkscape:pagecheckerboard="0"
     inkscape:showpageshadow="2"
     inkscape:deskcolor="#d1d1d1" />
  <metadata
     id="metadata7">
    <rdf:RDF>
      <cc:Work
         rdf:about="">
        <dc:format>image/svg+xml</dc:format>
        <dc:type
           rdf:resource="http://purl.org/dc/dcmitype/StillImage" />
      </cc:Work>
    </rdf:RDF>
  </metadata>
  <g
     inkscape:label="Layer 1"
     inkscape:groupmode="layer"
     id="layer1"
     transform="translate(-577.0055,-697.64128)">
    <g
       aria-label="3"
       id="text4150"
       style="font-style:normal;font-variant:normal;font-weight:normal;font-stretch:normal;line-height:0%;font-family:'Ubuntu Mono';-inkscape-font-specification:'Ubuntu Mono';letter-spacing:0px;word-spacing:0px;fill:#008000;fill-opacity:1;stroke:none;stroke-width:1px;stroke-linecap:butt;stroke-linejoin:miter;stroke-opacity:1">
      <g
         aria-label="0"
         id="text852"
         style="font-style:normal;font-weight:normal;font-size:285.851px;line-height:1.25;font-family:sans-serif;fill:#008000;fill-opacity:1;stroke:none;stroke-width:7.14628px">
        <path
           d="m 609.17013,702.67384 v 16.19172 q 0,10.50273 -1.75046,22.97473 -1.53165,12.472 -3.50091,25.16281 h -21.66189 q -2.40688,-12.69081 -3.93853,-25.16281 -1.31284,-12.472 -1.31284,-23.19354 v -15.97291 z m 5.47011,-5.03256 h 33.03986 l 73.51916,211.80518 h -33.47747 z m 116.40497,60.17192 q 8.31467,-2.40687 21.44309,-4.37614 13.12842,-2.18807 27.56968,-2.18807 14.66007,0 24.28758,3.93853 9.84631,3.71972 15.5353,10.72154 5.68898,7.00183 8.09586,16.62934 2.40687,9.6275 2.40687,21.44308 v 64.98568 h -32.60224 v -61.04715 q 0,-15.75411 -4.15733,-22.31832 -4.15734,-6.56421 -15.5353,-6.56421 -3.50091,0 -7.43944,0.43762 -3.93853,0.2188 -7.00182,0.65642 v 88.83564 H 731.04521 Z M 883.7719,702.67384 v 16.19172 q 0,10.50273 -1.75045,22.97473 -1.53165,12.472 -3.50091,25.16281 h -21.6619 q -2.40688,-12.69081 -3.93852,-25.16281 -1.31285,-12.472 -1.31285,-23.19354 v -15.97291 z"
           id="text1"
           style="font-weight:bold;font-size:218.807px;font-family:Ubuntu;-inkscape-font-specification:'Ubuntu Bold';text-align:center;text-anchor:middle;stroke-width:21.8807;stroke-linecap:square;stroke-linejoin:round"
           aria-label="'\n'" />
      </g>
    </g>
  </g>
</svg>
