<?xml version="1.0" encoding="UTF-8" standalone="no"?>
<!-- Created with Inkscape (http://www.inkscape.org/) -->

<svg
   width="528.78339mm"
   height="281.67642mm"
   viewBox="0 0 528.78339 281.67642"
   version="1.1"
   id="svg5"
   inkscape:version="1.1 (ce6663b3b7, 2021-05-25)"
   sodipodi:docname="intro-01.svg"
   xmlns:inkscape="http://www.inkscape.org/namespaces/inkscape"
   xmlns:sodipodi="http://sodipodi.sourceforge.net/DTD/sodipodi-0.dtd"
   xmlns="http://www.w3.org/2000/svg"
   xmlns:svg="http://www.w3.org/2000/svg">
  <sodipodi:namedview
     id="namedview7"
     pagecolor="#ffffff"
     bordercolor="#666666"
     borderopacity="1.0"
     inkscape:pageshadow="2"
     inkscape:pageopacity="0.0"
     inkscape:pagecheckerboard="0"
     inkscape:document-units="mm"
     showgrid="false"
     showguides="true"
     inkscape:guide-bbox="true"
     inkscape:zoom="0.33540614"
     inkscape:cx="1000.2798"
     inkscape:cy="651.44901"
     inkscape:window-width="1860"
     inkscape:window-height="1016"
     inkscape:window-x="60"
     inkscape:window-y="27"
     inkscape:window-maximized="1"
     inkscape:current-layer="layer2"
     fit-margin-top="0"
     fit-margin-left="0"
     fit-margin-right="0"
     fit-margin-bottom="0" />
  <defs
     id="defs2" />
  <g
     inkscape:groupmode="layer"
     id="layer2"
     inkscape:label="back"
     transform="translate(15.399539,-16.264431)">
    <rect
       style="fill:#ffffff;stroke-width:0.461641"
       id="rect17249"
       width="528.78339"
       height="281.67642"
       x="-15.399539"
       y="16.264431" />
  </g>
  <g
     inkscape:label="Layer 1"
     inkscape:groupmode="layer"
     id="layer1"
     transform="translate(15.399539,-16.264431)">
    <g
       inkscape:label="Layer 1"
       id="layer1-36"
       style="display:inline;opacity:1"
       transform="translate(79.828271,21.096441)">
      <rect
         ry="5.4701953"
         y="44.312027"
         x="-67.81707"
         height="70.755783"
         width="106.55138"
         id="rect861"
         style="fill:#c0dfeb;fill-opacity:1;stroke:#777777;stroke-width:1.33487;stroke-linejoin:round;stroke-miterlimit:4;stroke-dasharray:none;stroke-opacity:1" />
      <path
         inkscape:connector-curvature="0"
         id="path865-3-6"
         d="m 38.5573,78.351375 h 9.98947"
         style="display:inline;fill:none;stroke:#777777;stroke-width:2.08673;stroke-linecap:butt;stroke-linejoin:miter;stroke-miterlimit:4;stroke-dasharray:none;stroke-opacity:1" />
      <g
         id="layer1-3"
         inkscape:label="Layer 1"
         style="display:inline"
         transform="matrix(0.30103422,0,0,0.30103422,-30.72076,53.419391)">
        <path
           style="fill:none;stroke:#008000;stroke-width:2;stroke-linecap:round;stroke-linejoin:round"
           inkscape:connector-curvature="0"
           id="path6-6"
           d="m 69.663915,107.28527 13.49404,29.37368 -12.43879,31.77467 13.78754,4.28259 m -42.76081,-62.91564 c 0,0 -3.59775,26.95639 -8.52446,29.13197 -4.92342,2.17885 -32.22147896,22.40266 -32.22147896,22.40266 l 8.72891556,10.6362"
           inkscape:export-filename="/home/obijuan/develop/FPGAwars/Icestudio-block-icons/Bits/png/0-legs.png"
           inkscape:export-xdpi="90"
           inkscape:export-ydpi="90" />
        <g
           aria-label="o"
           transform="matrix(0.9118541,0,0,1.0966667,-128.06239,35.709923)"
           id="text4142-6"
           style="font-style:normal;font-weight:normal;font-size:12px;line-height:0%;font-family:sans-serif;letter-spacing:0px;word-spacing:0px;display:inline;fill:#008000;fill-opacity:1;stroke:none;stroke-width:1px;stroke-linecap:butt;stroke-linejoin:miter;stroke-opacity:1">
          <path
             d="m 212.31328,-10.227385 q -10.41157,0 -17.41094,7.5243289 -6.91189,7.4368361 -9.71164,21.5230791 -2.79975,14.086242 1.1374,21.610571 3.93715,7.436836 14.34872,7.436836 10.23659,0 17.14847,-7.436836 6.99938,-7.524329 9.79913,-21.610571 2.79975,-14.086243 -1.1374,-21.5230791 -3.93715,-7.5243289 -14.17374,-7.5243289 z m 4.4621,-22.398 q 25.28525,0 36.74672,13.648781 11.54897,13.6487821 6.7369,37.796627 -4.81207,24.147844 -21.78555,37.796626 -16.97349,13.648782 -42.25873,13.648782 -25.37274,0 -36.92171,-13.648782 -11.54896,-13.648782 -6.73689,-37.796626 4.81207,-24.1478449 21.78555,-37.796627 17.06098,-13.648781 42.43371,-13.648781 z"
             style="font-style:italic;font-variant:normal;font-weight:bold;font-stretch:normal;font-size:179.184px;line-height:1.25;font-family:sans-serif;-inkscape-font-specification:'sans-serif Bold Italic';fill:#008000;stroke-width:1px"
             id="path77" />
        </g>
      </g>
    </g>
    <text
       xml:space="preserve"
       style="font-style:normal;font-weight:normal;font-size:12.899px;line-height:1.25;font-family:sans-serif;letter-spacing:0px;word-spacing:0px;fill:#000000;fill-opacity:1;stroke:none;stroke-width:0.322475"
       x="20.602646"
       y="50.876537"
       id="text2384"><tspan
         sodipodi:role="line"
         id="tspan2382"
         style="stroke-width:0.322475"
         x="20.602646"
         y="50.876537">Constant Bit 0</tspan></text>
    <g
       inkscape:label="Layer 1"
       id="layer1-7"
       style="display:inline;opacity:1"
       transform="translate(233.95426,21.096446)">
      <rect
         ry="5.4701953"
         y="43.151867"
         x="-68.055016"
         height="70.755783"
         width="106.55138"
         id="rect861-5"
         style="fill:#c0dfeb;fill-opacity:1;stroke:#777777;stroke-width:1.33487;stroke-linejoin:round;stroke-miterlimit:4;stroke-dasharray:none;stroke-opacity:1" />
      <path
         inkscape:connector-curvature="0"
         id="path865-3-6-3"
         d="m 38.5573,78.351375 h 9.98947"
         style="display:inline;fill:none;stroke:#777777;stroke-width:2.08673;stroke-linecap:butt;stroke-linejoin:miter;stroke-miterlimit:4;stroke-dasharray:none;stroke-opacity:1" />
      <g
         id="g842"
         transform="matrix(0.28221807,0,0,0.28221807,-25.863544,54.043563)">
        <path
           d="M 7.7019847,32.420349 49.971451,-2.7537751e-4 84.179061,7.7250886 56.845733,124.46091 30.238601,118.4517 51.260038,25.272431 20.02273,44.198627 Z"
           id="path4-3"
           style="fill:#008000;fill-rule:evenodd"
           inkscape:connector-curvature="0"
           inkscape:export-filename="/home/obijuan/develop/FPGAwars/Icestudio-block-icons/Bits/png/1-legs.png"
           inkscape:export-xdpi="90"
           inkscape:export-ydpi="90" />
        <path
           d="m 46.13026,117.28062 21.354503,28.25706 -17.909171,21.36821 6.197228,5.51272 m -14.03249,-54.44992 -12.399917,28.25978 -28.2424357,5.51272 2.066653,8.95851"
           id="path6-6-5"
           style="fill:none;stroke:#008000;stroke-width:2.196;stroke-linecap:round;stroke-linejoin:round"
           inkscape:connector-curvature="0"
           inkscape:export-filename="/home/obijuan/develop/FPGAwars/Icestudio-block-icons/Bits/png/1-legs.png"
           inkscape:export-xdpi="90"
           inkscape:export-ydpi="90" />
      </g>
    </g>
    <text
       xml:space="preserve"
       style="font-style:normal;font-weight:normal;font-size:12.899px;line-height:1.25;font-family:sans-serif;letter-spacing:0px;word-spacing:0px;fill:#000000;fill-opacity:1;stroke:none;stroke-width:0.322475"
       x="173.92787"
       y="50.876537"
       id="text3278"><tspan
         sodipodi:role="line"
         id="tspan3276"
         style="stroke-width:0.322475"
         x="173.92787"
         y="50.876537">Constant Bit 1</tspan></text>
    <g
       inkscape:label="Layer 1"
       id="layer1-6"
       transform="translate(-36.96423,125.61204)">
      <rect
         ry="5.4701953"
         y="71.089539"
         x="47.544601"
         height="70.755783"
         width="106.55138"
         id="rect861-2"
         style="display:inline;fill:#e3e3e3;fill-opacity:1;stroke:#777777;stroke-width:0.79375;stroke-linejoin:round;stroke-miterlimit:4;stroke-dasharray:none;stroke-opacity:1" />
      <path
         inkscape:connector-curvature="0"
         id="path865-2-1-2"
         d="M 162.38039,106.18468 H 153.8002"
         style="display:inline;fill:none;stroke:#777777;stroke-width:4.7625;stroke-linecap:butt;stroke-linejoin:miter;stroke-miterlimit:4;stroke-dasharray:none;stroke-opacity:1" />
      <text
         xml:space="preserve"
         style="font-style:normal;font-weight:normal;font-size:13.214px;line-height:1.25;font-family:sans-serif;display:inline;fill:#767675;fill-opacity:1;stroke:none;stroke-width:0.297393"
         x="156.33995"
         y="95.888214"
         id="text844"><tspan
           sodipodi:role="line"
           id="tspan842"
           x="156.33995"
           y="95.888214"
           style="fill:#767675;fill-opacity:1;stroke-width:0.297393">[1:0]</tspan></text>
      <path
         d="m 97.344352,112.93416 q 2.04898,1.51776 4.629178,3.8703 2.58021,2.27665 5.08452,4.93274 2.5802,2.65609 4.85685,5.46396 2.27665,2.73198 3.64264,5.08452 h -7.43705 q -1.44188,-2.35254 -3.56675,-4.78096 -2.12488,-2.50433 -4.55331,-4.78097 -2.352528,-2.27665 -4.780958,-4.17386 -2.35253,-1.8972 -4.24975,-3.1873 v 16.92309 H 84.671001 V 80.757521 l 6.298721,-1.06244 v 32.100759 q 4.17386,-3.64264 8.34772,-7.20939 4.173858,-3.64264 7.512948,-7.512949 h 7.36116 q -3.2632,3.870309 -7.89238,7.968269 -4.5533,4.09797 -8.954818,7.89239 z"
         style="font-style:normal;font-variant:normal;font-weight:normal;font-stretch:normal;font-size:335.399px;line-height:1.25;font-family:'Ubuntu Mono';-inkscape-font-specification:'Ubuntu Mono';letter-spacing:0px;word-spacing:0px;display:inline;fill:#008000;fill-opacity:1;stroke:none;stroke-width:0.282222px;stroke-linecap:butt;stroke-linejoin:miter;stroke-opacity:1"
         id="path832" />
      <path
         inkscape:connector-curvature="0"
         id="path876"
         d="m 100.62227,71.349879 v -9.98947"
         style="display:inline;fill:none;stroke:#777777;stroke-width:2.08673;stroke-linecap:butt;stroke-linejoin:miter;stroke-miterlimit:4;stroke-dasharray:none;stroke-opacity:1" />
    </g>
    <text
       xml:space="preserve"
       style="font-style:normal;font-weight:normal;font-size:12.899px;line-height:1.25;font-family:sans-serif;text-align:center;letter-spacing:0px;word-spacing:0px;text-anchor:middle;fill:#000000;fill-opacity:1;stroke:none;stroke-width:0.322475"
       x="67.401848"
       y="162.70874"
       id="text8918"><tspan
         sodipodi:role="line"
         id="tspan8916"
         style="text-align:center;text-anchor:middle;stroke-width:0.322475"
         x="67.401848"
         y="162.70874">2-bits Generic</tspan><tspan
         sodipodi:role="line"
         style="text-align:center;text-anchor:middle;stroke-width:0.322475"
         x="67.401848"
         y="178.83249"
         id="tspan9050">constant</tspan></text>
    <g
       inkscape:label="Layer 1"
       id="layer1-9"
       transform="translate(123.1553,126.05752)">
      <rect
         ry="5.4701953"
         y="71.089539"
         x="47.544601"
         height="70.755783"
         width="106.55138"
         id="rect861-1"
         style="display:inline;fill:#e3e3e3;fill-opacity:1;stroke:#777777;stroke-width:0.79375;stroke-linejoin:round;stroke-miterlimit:4;stroke-dasharray:none;stroke-opacity:1" />
      <path
         inkscape:connector-curvature="0"
         id="path865-2-1-2-2"
         d="M 162.38039,106.18468 H 153.8002"
         style="display:inline;fill:none;stroke:#777777;stroke-width:4.7625;stroke-linecap:butt;stroke-linejoin:miter;stroke-miterlimit:4;stroke-dasharray:none;stroke-opacity:1" />
      <text
         xml:space="preserve"
         style="font-style:normal;font-weight:normal;font-size:13.214px;line-height:1.25;font-family:sans-serif;display:inline;fill:#767675;fill-opacity:1;stroke:none;stroke-width:0.297393"
         x="156.33995"
         y="95.888214"
         id="text844-7"><tspan
           sodipodi:role="line"
           id="tspan842-0"
           x="156.33995"
           y="95.888214"
           style="fill:#767675;fill-opacity:1;stroke-width:0.297393">[1:0]</tspan></text>
      <path
         d="m 96.715279,126.1923 q 6.412421,0 9.091021,-2.51627 2.75975,-2.59743 2.75975,-6.89941 0,-2.75977 -1.13636,-4.62668 -1.13639,-1.8669 -3.00328,-3.00326 -1.86692,-1.13639 -4.30201,-1.6234 -2.43508,-0.48702 -5.113686,-0.48702 h -1.704555 v -5.43837 h 2.353915 q 1.785726,0 3.652641,-0.32467 1.948075,-0.40586 3.490295,-1.29872 1.6234,-0.974041 2.59743,-2.597426 0.97404,-1.623395 0.97404,-4.139661 0,-4.139649 -2.59744,-5.844212 -2.51625,-1.785732 -5.925382,-1.785732 -3.490295,0 -5.925383,1.05521 -2.435096,0.97403 -4.058488,2.029239 l -2.597423,-5.113689 q 1.704564,-1.217549 5.113684,-2.516254 3.490299,-1.379887 7.711118,-1.379887 3.977324,0 6.818254,0.974041 2.84094,0.974029 4.62667,2.759762 1.86691,1.785732 2.75978,4.220818 0.89286,2.353928 0.89286,5.194859 0,3.97731 -2.11041,6.737082 -2.02925,2.75977 -5.27602,4.22083 3.89613,1.13636 6.73708,4.46432 2.84093,3.24679 2.84093,8.68515 0,3.24678 -1.13639,6.08773 -1.05519,2.75975 -3.32794,4.78901 -2.19159,2.02923 -5.76304,3.1656 -3.49031,1.13639 -8.360492,1.13639 -1.866896,0 -3.896141,-0.32469 -1.948072,-0.24351 -3.652627,-0.73052 -1.704564,-0.40585 -3.084448,-0.8117 -1.298721,-0.48703 -1.8669,-0.73052 l 1.298712,-5.76304 q 1.298711,0.64936 4.139653,1.54222 2.840929,0.89287 6.980582,0.89287 z"
         style="font-style:normal;font-variant:normal;font-weight:normal;font-stretch:normal;font-size:335.399px;line-height:1.25;font-family:'Ubuntu Mono';-inkscape-font-specification:'Ubuntu Mono';letter-spacing:0px;word-spacing:0px;fill:#008000;fill-opacity:1;stroke:none;stroke-width:0.282223px;stroke-linecap:butt;stroke-linejoin:miter;stroke-opacity:1"
         id="path834" />
    </g>
    <text
       xml:space="preserve"
       style="font-style:normal;font-weight:normal;font-size:12.899px;line-height:1.25;font-family:sans-serif;text-align:center;letter-spacing:0px;word-spacing:0px;text-anchor:middle;fill:#000000;fill-opacity:1;stroke:none;stroke-width:0.322475"
       x="225.83992"
       y="181.47124"
       id="text12878"><tspan
         sodipodi:role="line"
         style="text-align:center;text-anchor:middle;stroke-width:0.322475"
         x="225.83992"
         y="181.47124"
         id="tspan12876">Number 3 (2-bits)</tspan></text>
    <g
       inkscape:label="Layer 1"
       id="layer1-93"
       transform="translate(293.34972,127.36453)">
      <rect
         ry="5.4701953"
         y="71.089539"
         x="47.544601"
         height="70.755783"
         width="106.55138"
         id="rect861-6"
         style="display:inline;fill:#e3e3e3;fill-opacity:1;stroke:#777777;stroke-width:0.79375;stroke-linejoin:round;stroke-miterlimit:4;stroke-dasharray:none;stroke-opacity:1" />
      <path
         inkscape:connector-curvature="0"
         id="path865-2-1-2-0"
         d="M 162.38039,106.18468 H 153.8002"
         style="display:inline;fill:none;stroke:#777777;stroke-width:4.7625;stroke-linecap:butt;stroke-linejoin:miter;stroke-miterlimit:4;stroke-dasharray:none;stroke-opacity:1" />
      <g
         aria-label="[7:0]"
         id="text844-6"
         style="font-size:13.214px;line-height:1.25;display:inline;fill:#767675;stroke-width:0.297393">
        <path
           d="m 157.47553,85.848671 h 2.73571 v 0.922658 h -1.54852 v 9.936308 h 1.54852 v 0.922657 h -2.73571 z"
           id="path6393" />
        <path
           d="m 162.57918,86.255157 h 6.19406 v 0.554884 l -3.49706,9.078173 h -1.36141 l 3.2906,-8.536192 h -4.62619 z"
           id="path6395" />
        <path
           d="m 171.45088,94.249368 h 1.36141 v 1.638846 h -1.36141 z m 0,-5.193979 h 1.36141 v 1.638846 h -1.36141 z"
           id="path6397" />
        <path
           d="m 178.5547,87.113292 q -1.00654,0 -1.51626,0.993631 -0.50326,0.987179 -0.50326,2.974441 0,1.980809 0.50326,2.97444 0.50972,0.987179 1.51626,0.987179 1.01298,0 1.51625,-0.987179 0.50972,-0.993631 0.50972,-2.97444 0,-1.987262 -0.50972,-2.974441 -0.50327,-0.993631 -1.51625,-0.993631 z m 0,-1.032343 q 1.61949,0 2.47117,1.283977 0.85814,1.277526 0.85814,3.716438 0,2.43246 -0.85814,3.716437 -0.85168,1.277525 -2.47117,1.277525 -1.61949,0 -2.47763,-1.277525 -0.85168,-1.283977 -0.85168,-3.716437 0,-2.438912 0.85168,-3.716438 0.85814,-1.283977 2.47763,-1.283977 z"
           id="path6399" />
        <path
           d="m 186.78119,85.848671 v 11.781623 h -2.73571 v -0.922657 h 1.54206 v -9.936308 h -1.54206 v -0.922658 z"
           id="path6401" />
      </g>
      <g
         aria-label="'A'"
         id="text2666"
         style="font-size:67.6552px;line-height:1.25;letter-spacing:0px;word-spacing:0px;fill:#008000;stroke-width:1.69138">
        <path
           d="M 70.626196,83.316304 V 101.6506 h -5.61591 V 83.316304 Z"
           id="path6368" />
        <path
           d="M 100.22534,89.890222 91.173819,114.43505 H 109.3099 Z m -3.765959,-6.573918 h 7.564959 l 18.79678,49.320906 h -6.9373 l -4.49273,-12.65232 H 89.158698 l -4.492728,12.65232 h -7.036404 z"
           id="path6370" />
        <path
           d="M 135.50648,83.316304 V 101.6506 h -5.61591 V 83.316304 Z"
           id="path6372" />
      </g>
    </g>
    <text
       xml:space="preserve"
       style="font-style:normal;font-weight:normal;font-size:12.899px;line-height:1.25;font-family:sans-serif;text-align:center;letter-spacing:0px;word-spacing:0px;text-anchor:middle;fill:#000000;fill-opacity:1;stroke:none;stroke-width:0.322475"
       x="393.96414"
       y="174.48347"
       id="text14670"><tspan
         sodipodi:role="line"
         style="text-align:center;text-anchor:middle;stroke-width:0.322475"
         x="393.96414"
         y="174.48347"
         id="tspan14668">8-bits ASCII</tspan><tspan
         sodipodi:role="line"
         style="text-align:center;text-anchor:middle;stroke-width:0.322475"
         x="393.96414"
         y="190.60722"
         id="tspan15504">constant 'A'</tspan></text>
  </g>
</svg>
