<?xml version="1.0" encoding="UTF-8" standalone="no"?>
<!-- Created with Inkscape (http://www.inkscape.org/) -->

<svg
   width="495.38962mm"
   height="130.11559mm"
   viewBox="0 0 495.38962 130.11559"
   version="1.1"
   id="svg5"
   inkscape:version="1.1 (c22cd4935e, 2021-05-26)"
   sodipodi:docname="organization-3.svg"
   xmlns:inkscape="http://www.inkscape.org/namespaces/inkscape"
   xmlns:sodipodi="http://sodipodi.sourceforge.net/DTD/sodipodi-0.dtd"
   xmlns="http://www.w3.org/2000/svg"
   xmlns:svg="http://www.w3.org/2000/svg">
  <sodipodi:namedview
     id="namedview7"
     pagecolor="#ffffff"
     bordercolor="#666666"
     borderopacity="1.0"
     inkscape:pageshadow="2"
     inkscape:pageopacity="0.0"
     inkscape:pagecheckerboard="0"
     inkscape:document-units="mm"
     showgrid="false"
     fit-margin-top="0"
     fit-margin-left="0"
     fit-margin-right="0"
     fit-margin-bottom="0"
     inkscape:zoom="0.32026164"
     inkscape:cx="626.05062"
     inkscape:cy="-101.47953"
     inkscape:window-width="1860"
     inkscape:window-height="1016"
     inkscape:window-x="60"
     inkscape:window-y="27"
     inkscape:window-maximized="1"
     inkscape:current-layer="layer2" />
  <defs
     id="defs2" />
  <g
     inkscape:groupmode="layer"
     id="layer2"
     inkscape:label="back"
     transform="translate(32.670386,-65.885236)">
    <rect
       style="fill:#ffffff;stroke:#ffffff;stroke-width:1.5875"
       id="rect909"
       width="493.80212"
       height="128.52809"
       x="-31.876637"
       y="66.678986" />
  </g>
  <g
     inkscape:label="Layer 1"
     inkscape:groupmode="layer"
     id="layer1"
     transform="translate(32.670386,-65.885236)">
    <g
       inkscape:label="Layer 1"
       id="layer1-3"
       style="display:inline;opacity:1"
       transform="translate(68.608221,51.313276)">
      <rect
         ry="5.4701953"
         y="44.937565"
         x="-65.989685"
         height="70.755783"
         width="106.55138"
         id="rect861"
         style="fill:#c0dfeb;fill-opacity:1;stroke:#777777;stroke-width:1.33487;stroke-linejoin:round;stroke-miterlimit:4;stroke-dasharray:none;stroke-opacity:1" />
      <path
         inkscape:connector-curvature="0"
         id="path865-3-6"
         d="m 40.068732,80.49364 h 9.98947"
         style="display:inline;fill:none;stroke:#777777;stroke-width:2.08673;stroke-linecap:butt;stroke-linejoin:miter;stroke-miterlimit:4;stroke-dasharray:none;stroke-opacity:1" />
      <path
         d="m -16.189931,86.605149 q 2.048984,1.517766 4.629178,3.870304 2.5802115,2.276649 5.0845236,4.932741 2.5802027,2.656089 4.8568508,5.463956 2.27664806,2.73198 3.6426401,5.08452 H -5.413792 q -1.4418828,-2.35254 -3.5667495,-4.78096 -2.1248755,-2.504326 -4.5533045,-4.780973 -2.352538,-2.276646 -4.78096,-4.173852 -2.352538,-1.897209 -4.24975,-3.18731 v 16.923095 h -6.298725 V 54.428506 l 6.298725,-1.062435 v 32.100754 q 4.173859,-3.642639 8.347718,-7.209388 4.173859,-3.642641 7.5129446,-7.512943 h 7.36116286 q -3.26319476,3.870302 -7.89238156,7.968271 -4.5532959,4.09797 -8.9548189,7.892384 z"
         style="font-style:normal;font-variant:normal;font-weight:normal;font-stretch:normal;font-size:335.399px;line-height:1.25;font-family:'Ubuntu Mono';-inkscape-font-specification:'Ubuntu Mono';letter-spacing:0px;word-spacing:0px;fill:#008000;fill-opacity:1;stroke:none;stroke-width:0.282222px;stroke-linecap:butt;stroke-linejoin:miter;stroke-opacity:1"
         id="path832" />
      <path
         inkscape:connector-curvature="0"
         id="path876"
         d="m -12.912011,45.455543 v -9.98947"
         style="display:inline;fill:none;stroke:#777777;stroke-width:2.08673;stroke-linecap:butt;stroke-linejoin:miter;stroke-miterlimit:4;stroke-dasharray:none;stroke-opacity:1" />
    </g>
    <g
       inkscape:label="Layer 1"
       id="layer1-6"
       style="display:inline;opacity:1"
       transform="translate(220.05679,50.812129)">
      <rect
         ry="5.4701953"
         y="44.312027"
         x="-67.81707"
         height="70.755783"
         width="106.55138"
         id="rect861-7"
         style="fill:#c0dfeb;fill-opacity:1;stroke:#777777;stroke-width:1.33487;stroke-linejoin:round;stroke-miterlimit:4;stroke-dasharray:none;stroke-opacity:1" />
      <path
         inkscape:connector-curvature="0"
         id="path865-3-6-5"
         d="m 38.5573,78.351375 h 9.98947"
         style="display:inline;fill:none;stroke:#777777;stroke-width:2.08673;stroke-linecap:butt;stroke-linejoin:miter;stroke-miterlimit:4;stroke-dasharray:none;stroke-opacity:1" />
      <g
         id="layer1-3-3"
         inkscape:label="Layer 1"
         style="display:inline"
         transform="matrix(0.30103422,0,0,0.30103422,-30.72076,53.419391)">
        <path
           style="fill:none;stroke:#008000;stroke-width:2;stroke-linecap:round;stroke-linejoin:round"
           inkscape:connector-curvature="0"
           id="path6-6"
           d="m 69.663915,107.28527 13.49404,29.37368 -12.43879,31.77467 13.78754,4.28259 m -42.76081,-62.91564 c 0,0 -3.59775,26.95639 -8.52446,29.13197 -4.92342,2.17885 -32.22147896,22.40266 -32.22147896,22.40266 l 8.72891556,10.6362"
           inkscape:export-filename="/home/obijuan/develop/FPGAwars/Icestudio-block-icons/Bits/png/0-legs.png"
           inkscape:export-xdpi="90"
           inkscape:export-ydpi="90" />
        <g
           aria-label="o"
           transform="matrix(0.9118541,0,0,1.0966667,-128.06239,35.709923)"
           id="text4142-6"
           style="font-style:normal;font-weight:normal;font-size:12px;line-height:0%;font-family:sans-serif;letter-spacing:0px;word-spacing:0px;display:inline;fill:#008000;fill-opacity:1;stroke:none;stroke-width:1px;stroke-linecap:butt;stroke-linejoin:miter;stroke-opacity:1">
          <path
             d="m 212.31328,-10.227385 q -10.41157,0 -17.41094,7.5243289 -6.91189,7.4368361 -9.71164,21.5230791 -2.79975,14.086242 1.1374,21.610571 3.93715,7.436836 14.34872,7.436836 10.23659,0 17.14847,-7.436836 6.99938,-7.524329 9.79913,-21.610571 2.79975,-14.086243 -1.1374,-21.5230791 -3.93715,-7.5243289 -14.17374,-7.5243289 z m 4.4621,-22.398 q 25.28525,0 36.74672,13.648781 11.54897,13.6487821 6.7369,37.796627 -4.81207,24.147844 -21.78555,37.796626 -16.97349,13.648782 -42.25873,13.648782 -25.37274,0 -36.92171,-13.648782 -11.54896,-13.648782 -6.73689,-37.796626 4.81207,-24.1478449 21.78555,-37.796627 17.06098,-13.648781 42.43371,-13.648781 z"
             style="font-style:italic;font-variant:normal;font-weight:bold;font-stretch:normal;font-size:179.184px;line-height:1.25;font-family:sans-serif;-inkscape-font-specification:'sans-serif Bold Italic';fill:#008000;stroke-width:1px"
             id="path77" />
        </g>
      </g>
    </g>
    <g
       inkscape:label="Layer 1"
       id="layer1-5"
       transform="translate(246.96014,25.792752)">
      <rect
         ry="5.4701953"
         y="71.089539"
         x="47.544601"
         height="70.755783"
         width="106.55138"
         id="rect861-6"
         style="display:inline;fill:#e3e3e3;fill-opacity:1;stroke:#777777;stroke-width:0.79375;stroke-linejoin:round;stroke-miterlimit:4;stroke-dasharray:none;stroke-opacity:1" />
      <path
         inkscape:connector-curvature="0"
         id="path865-2-1-2"
         d="M 162.38039,106.18468 H 153.8002"
         style="display:inline;fill:none;stroke:#777777;stroke-width:4.7625;stroke-linecap:butt;stroke-linejoin:miter;stroke-miterlimit:4;stroke-dasharray:none;stroke-opacity:1" />
      <g
         aria-label="[7:0]"
         id="text844"
         style="font-size:13.214px;line-height:1.25;display:inline;fill:#767675;stroke-width:0.297393">
        <path
           d="m 157.47553,85.848671 h 2.73571 v 0.922658 h -1.54852 v 9.936308 h 1.54852 v 0.922657 h -2.73571 z"
           id="path6393" />
        <path
           d="m 162.57918,86.255157 h 6.19406 v 0.554884 l -3.49706,9.078173 h -1.36141 l 3.2906,-8.536192 h -4.62619 z"
           id="path6395" />
        <path
           d="m 171.45088,94.249368 h 1.36141 v 1.638846 h -1.36141 z m 0,-5.193979 h 1.36141 v 1.638846 h -1.36141 z"
           id="path6397" />
        <path
           d="m 178.5547,87.113292 q -1.00654,0 -1.51626,0.993631 -0.50326,0.987179 -0.50326,2.974441 0,1.980809 0.50326,2.97444 0.50972,0.987179 1.51626,0.987179 1.01298,0 1.51625,-0.987179 0.50972,-0.993631 0.50972,-2.97444 0,-1.987262 -0.50972,-2.974441 -0.50327,-0.993631 -1.51625,-0.993631 z m 0,-1.032343 q 1.61949,0 2.47117,1.283977 0.85814,1.277526 0.85814,3.716438 0,2.43246 -0.85814,3.716437 -0.85168,1.277525 -2.47117,1.277525 -1.61949,0 -2.47763,-1.277525 -0.85168,-1.283977 -0.85168,-3.716437 0,-2.438912 0.85168,-3.716438 0.85814,-1.283977 2.47763,-1.283977 z"
           id="path6399" />
        <path
           d="m 186.78119,85.848671 v 11.781623 h -2.73571 v -0.922657 h 1.54206 v -9.936308 h -1.54206 v -0.922658 z"
           id="path6401" />
      </g>
      <g
         aria-label="'A'"
         id="text2666"
         style="font-size:67.6552px;line-height:1.25;letter-spacing:0px;word-spacing:0px;fill:#008000;stroke-width:1.69138">
        <path
           d="M 70.626196,83.316304 V 101.6506 h -5.61591 V 83.316304 Z"
           id="path6368" />
        <path
           d="M 100.22534,89.890222 91.173819,114.43505 H 109.3099 Z m -3.765959,-6.573918 h 7.564959 l 18.79678,49.320906 h -6.9373 l -4.49273,-12.65232 H 89.158698 l -4.492728,12.65232 h -7.036404 z"
           id="path6370" />
        <path
           d="M 135.50648,83.316304 V 101.6506 h -5.61591 V 83.316304 Z"
           id="path6372" />
      </g>
    </g>
  </g>
</svg>
